Simulation
nRows=42
nColumns=15
endheader
time  TH_x TH_y TH_z SC_y  SC_z  SC_x  AC_y  AC_z  AC_x  GH_y  GH_z  GH_yy  EL_x  PS_y
0.0  0.000000  0.000000  0.000000  -21.389158140165346  6.58726628710536  -9.177473655413682  55.512190278824676  8.37644174039907  10.070056981134176  -163.2019465746516  2.646671354946779  -159.29078778100532  21.040714885938353  120.000000
0.04016479400749064  0.000000  0.000000  0.000000  -21.39448861383995  6.5928354600782475  -9.184036309895639  55.473860099163225  8.419040736418173  10.052021484681664  -161.8984996866098  2.5039485571240565  -160.7009447570816  20.424103231554525  120.000000
0.08032958801498127  0.000000  0.000000  0.000000  -21.40767195807932  6.609421721209441  -9.197571431653616  55.352082085107  8.546618404198329  9.99614295553814  -156.73358415108865  2.0804643741654827  -166.19439439448513  19.854215730074305  120.000000
0.12049438202247191  0.000000  0.000000  0.000000  -21.433209530075192  6.6416412186397835  -9.216198688015194  55.14112010277281  8.748550600313738  9.90196119269229  -141.4550421885847  1.4411403166162193  177.96143154404666  19.304898294492883  120.000000
0.16065917602996255  0.000000  0.000000  0.000000  -21.482530788131815  6.690150432921381  -9.248490513187155  54.8408394478616  9.004106543541381  9.77160408442181  -92.64066902335978  1.012956995805994  128.33945132527373  18.756299789535035  120.000000
0.20082397003745317  0.000000  0.000000  0.000000  -21.572888503286826  6.751093361629833  -9.30304741847915  54.45340566891841  9.29378631013322  9.60808444790657  -41.96570721521282  1.7535441974012471  76.61960516614879  18.192278683153372  120.000000
0.24098876404494382  0.000000  0.000000  0.000000  -21.728523950453713  6.822259528025304  -9.383743469918363  53.987233108893676  9.601039209239772  9.417844102416252  -25.53538277414801  3.210639566364541  58.92121909481115  17.605748745802494  120.000000
0.28115355805243447  0.000000  0.000000  0.000000  -21.970038987404624  6.901069332828463  -9.485376719176363  53.455261192823166  9.914809574706762  9.209251353873624  -19.283095056697913  4.985622061635273  51.20128141495245  16.997387868846193  120.000000
0.3213183520599251  0.000000  0.000000  0.000000  -22.31479755870853  6.9881430145733185  -9.596321371638732  52.87774778769669  10.231863015343563  8.988862520011129  -16.24407683729865  6.9852911808314575  46.522926558314616  16.373822067109597  120.000000
0.3614831460674157  0.000000  0.000000  0.000000  -22.76995141601116  7.085787053653127  -9.700075941741872  52.27665400494423  10.554840215239778  8.761376101793719  -14.55388387330169  9.169746477204422  43.05302276263767  15.744963666372717  120.000000
0.40164794007490634  0.000000  0.000000  0.000000  -23.333648111286934  7.1968664857012055  -9.776382842228593  51.67194031158676  10.887519482634815  8.530345422299783  -13.56051905971243  11.510669545391744  40.1722525528199  15.120719013628781  120.000000
0.441812734082397  0.000000  0.000000  0.000000  -23.99953131391231  7.3237826662225824  -9.803504577012701  51.081110286970855  11.232672015642544  8.2984775265592  -12.986247897148091  13.983489821097434  37.63616723574568  14.511025614331707  120.000000
0.48197752808988764  0.000000  0.000000  0.000000  -24.75629819581268  7.468732431888431  -9.760401484301292  50.51944337175227  11.589839871611886  8.065985058054554  -12.694975188396217  16.56389321899938  35.34105437512649  13.92390295370245  120.000000
0.5221423220973783  0.000000  0.000000  0.000000  -25.591279694141427  7.633274564899666  -9.628230453950424  50.000392286435016  11.954237101879817  7.8311807839385486  -12.60548944373476  19.22731771932511  33.23717359126578  13.36551255309007  120.000000
0.5623071161048689  0.000000  0.000000  0.000000  -26.490103452674273  7.816622017795056  -9.391833420105536  49.53477297672684  12.318185282769175  7.59308528461036  -12.659610585000406  21.94821969240721  31.295377435795668  12.839581747917796  120.000000
0.6024719101123596  0.000000  0.000000  0.000000  -27.437691597295828  8.016187020827292  -9.042660368781224  49.132453385846425  12.67370807055891  7.352836668490963  -12.80648595939409  24.70108355658551  29.491188793647247  12.347705880398662  120.000000
0.6426367041198502  0.000000  0.000000  0.000000  -28.419230635083995  8.228843740523564  -8.578331728091678  48.80200419899027  13.012730950100417  7.112925545423485  -13.000462424310207  27.461418726136653  27.801151513254656  11.8895066972648  120.000000
0.6828014981273408  0.000000  0.000000  0.000000  -29.4215648734934  8.451325921283956  -7.999670343605476  48.550035217327284  13.32618586959696  6.875230878639477  -13.201566509185637  30.207145346480015  26.20244148861806  11.461895339106647  120.000000
0.7229662921348314  0.000000  0.000000  0.000000  -30.434096164087503  8.681240719274504  -7.3097474230404895  48.380237225586065  13.60516610635136  6.640687152893443  -13.376429574259316  32.918985934214135  24.672807346980537  11.059335215134777  120.000000
0.7631310861423221  0.000000  0.000000  0.000000  -31.44846507273729  8.91702971420953  -6.514710566989436  48.292562572267464  13.843174273652707  6.410363343936643  -13.498924011564121  35.58087356037143  23.19135839535325  10.674200467780963  120.000000
0.8032958801498127  0.000000  0.000000  0.000000  -32.45735177053415  9.157788965641675  -5.62469881952904  48.28348859322765  14.037503001532023  6.186798697584611  -13.549472230024712  38.17950053354629  21.73864845107657  10.298080181020913  120.000000
0.8434606741573034  0.000000  0.000000  0.000000  -33.45257217985935  9.402481010672881  -4.6517202444919175  48.34672475216351  14.188077281003862  5.973217618326602  -13.514807740760336  40.70406318232516  20.298059972525433  9.923612443463986  120.000000
0.883625468164794  0.000000  0.000000  0.000000  -34.42463877798106  9.649825241632003  -3.608701664080315  48.473244320768714  14.296524786624008  5.772844767635368  -13.389789534952602  43.145988651788414  18.858872796558817  9.545866414119567  120.000000
0.9237902621722847  0.000000  0.000000  0.000000  -35.363838779003174  9.899157294353602  -2.510455156174632  48.65068644316129  14.36566964887923  5.588426161980845  -13.178623850044968  45.498245313414245  17.418642762965074  9.163201784125485  120.000000
0.9639550561797753  0.000000  0.000000  0.000000  -36.26107003172303  10.150245624979634  -1.374070574590787  48.86305752576778  14.398858744383645  5.421364447996889  -12.894349302423272  47.75457720194202  15.983786086521562  8.778067745904215  120.000000
1.004119850187266  0.000000  0.000000  0.000000  -37.107571818760825  10.40261862864457  -0.21893371692349364  49.09224587872203  14.39905574766991  5.271452426957808  -12.556414325487854  49.907911486155506  14.568325532613189  8.39687666463514  120.000000
1.0442846441947566  0.000000  0.000000  0.000000  -37.89454863868219  10.654747712260345  0.9337268255741675  49.32020613142307  14.368111926816916  5.136943884402633  -12.187568345190472  51.94915979885871  13.191726973206725  8.02934792867703  120.000000
1.0844494382022472  0.000000  0.000000  0.000000  -38.61379575855636  10.904397335247888  2.06211874641468  49.53096517466867  14.307168234295622  5.014768041323021  -11.810764763260345  53.86777377161986  11.876196178447639  7.68717389670395  120.000000
1.1246142322097379  0.000000  0.000000  0.000000  -39.259397556436795  11.149617996870589  3.145866486224985  49.712175421186394  14.21699271453948  4.900860932472695  -11.44649386927174  55.653840142040266  10.644129364739637  7.38246521198135  120.000000
1.1647790262172284  0.000000  0.000000  0.000000  -39.828876206481844  11.388565120514647  4.166937771651047  49.856145830679864  14.097889725005105  4.790566804677588  -11.111068475770352  57.299307917183874  9.515951729295734  7.126198500563846  120.000000
1.2049438202247191  0.000000  0.000000  0.000000  -40.32356986881213  11.618524737731205  5.110187977486521  49.96032317052545  13.949672508127087  4.678852745661554  -10.816574183517433  58.797661541992944  8.509091103376853  6.926927601409456  120.000000
1.2451086142322096  0.000000  0.000000  0.000000  -40.74803556324462  11.835954940316471  5.963605923530789  50.0269031929003  13.771730163209755  4.560132748483965  -10.571035194306747  60.14381444007973  7.636850646901868  6.789734521137736  120.000000
1.2852734082397004  0.000000  0.000000  0.000000  -41.10882005722109  12.03666976786291  6.719484712356497  50.06168766018945  13.564216680527993  4.429120991200382  -10.37848953679557  61.33451962567583  6.907654342336099  6.7155947180465505  120.000000
1.325438202247191  0.000000  0.000000  0.000000  -41.4126779624732  12.216552521306589  7.375203717115178  50.07235430757989  13.32915073790244  4.282144584156623  -10.238963039305606  62.36942942758563  6.324004501493133  6.700977835102826  120.000000
1.3656029962546816  0.000000  0.000000  0.000000  -41.66549782312314  12.372380332896563  7.933247476836115  50.066552034122765  13.071333924389403  4.118094242807647  -10.149227258971237  63.25150173824663  5.882442190329553  6.737499753392876  120.000000
1.4057677902621724  0.000000  0.000000  0.000000  -41.87226085941169  12.501917386189772  8.400752094160156  50.05072450743053  12.798690546180167  3.9384299795263096  -10.103998595591001  63.986851135501965  5.573703415114652  6.811970462150276  120.000000
1.4459325842696629  0.000000  0.000000  0.000000  -42.037181542829806  12.604030497335247  8.788513126858637  50.02938588959672  12.521796772123606  3.7467513524658838  -10.09692072757459  64.58388439836725  5.383679364616352  6.90728088850379  120.000000
1.4860973782771536  0.000000  0.000000  0.000000  -42.16380496679252  12.67859693532002  9.109470024761384  50.00520267567694  12.252837996599242  3.5479164701764807  -10.121220642431892  65.05198272939248  5.29458940760501  7.0044267781372875  120.000000
1.5262621722846441  0.000000  0.000000  0.000000  -42.25498239645741  12.726294403330584  9.376859719764386  49.97938504241244  12.004030693781758  3.3471702336536135  -10.169857828384469  65.39984562939519  5.286625918722613  7.085213622713076  120.000000
1.5664269662921348  0.000000  0.000000  0.000000  -42.31251574233499  12.748292572686493  9.60233277647091  49.95230024384228  11.78600936712973  3.149338524472292  -10.235570495304275  65.63359579874346  5.339464187426388  7.135226586078242  120.000000
1.6065917602996254  0.000000  0.000000  0.000000  -42.33671479325648  12.745917432770828  9.794310127384268  49.92406607590553  11.606401223483632  2.958293079320946  -10.310781201916178  65.75506022444553  5.433742518919878  7.146397376662144  120.000000
1.646756554307116  0.000000  0.000000  0.000000  -42.32583842130527  12.720317389280376  9.956696183553808  49.89498612714726  11.46897917536296  2.7767093538126004  -10.38773741584735  65.76020014694484  5.552017665516213  7.1185522153037875  120.000000
